<?xml version="1.0" encoding="UTF-8"?>
<svg id="Layer_1" data-name="Layer 1" xmlns="http://www.w3.org/2000/svg" xmlns:xlink="http://www.w3.org/1999/xlink" viewBox="0 0 508.8 603.63">
  <defs>
    <style>
      .cls-1 {
        letter-spacing: 0em;
      }

      .cls-2 {
        letter-spacing: -.02em;
      }

      .cls-3 {
        font-size: 69px;
      }

      .cls-3, .cls-4 {
        fill: #2b3990;
        font-family: Kontora-ExtraBlack, Kontora;
        font-weight: 800;
      }

      .cls-5 {
        letter-spacing: 0em;
      }

      .cls-6 {
        fill: url(#radial-gradient-5);
      }

      .cls-7 {
        letter-spacing: -.05em;
      }

      .cls-8 {
        fill: url(#radial-gradient);
      }

      .cls-9 {
        fill: url(#radial-gradient-3);
      }

      .cls-10 {
        letter-spacing: 0em;
      }

      .cls-11 {
        fill: url(#radial-gradient-8);
      }

      .cls-12 {
        fill: url(#radial-gradient-2);
      }

      .cls-4 {
        font-size: 90.12px;
      }

      .cls-13 {
        fill: url(#radial-gradient-4);
      }

      .cls-14 {
        letter-spacing: -.05em;
      }

      .cls-15 {
        letter-spacing: -.03em;
      }

      .cls-16 {
        letter-spacing: -.03em;
      }

      .cls-17 {
        fill: url(#radial-gradient-6);
      }

      .cls-18 {
        fill: url(#radial-gradient-7);
      }

      .cls-19 {
        letter-spacing: -.02em;
      }
    </style>
    <radialGradient id="radial-gradient" cx="76.59" cy="91.28" fx="76.59" fy="91.28" r="84.26" gradientUnits="userSpaceOnUse">
      <stop offset="0" stop-color="#2c2e84"/>
      <stop offset="1" stop-color="#455aa8"/>
    </radialGradient>
    <radialGradient id="radial-gradient-2" cx="89.22" cy="59.04" fx="89.22" fy="59.04" r="52.67" gradientUnits="userSpaceOnUse">
      <stop offset="0" stop-color="#243a7a"/>
      <stop offset="1" stop-color="#283177"/>
    </radialGradient>
    <radialGradient id="radial-gradient-3" cx="82.71" cy="108.73" fx="82.71" fy="108.73" r="43.45" gradientUnits="userSpaceOnUse">
      <stop offset="0" stop-color="#232162"/>
      <stop offset="1" stop-color="#4265b0"/>
    </radialGradient>
    <radialGradient id="radial-gradient-4" cx="117.52" cy="98.08" fx="117.52" fy="98.08" r="70" gradientUnits="userSpaceOnUse">
      <stop offset="0" stop-color="#154ca1"/>
      <stop offset="1" stop-color="#1c3968"/>
    </radialGradient>
    <radialGradient id="radial-gradient-5" cx="237.47" cy="392.33" fx="237.47" fy="392.33" r="112.6" xlink:href="#radial-gradient"/>
    <radialGradient id="radial-gradient-6" cx="254.36" cy="349.25" fx="254.36" fy="349.25" r="70.38" xlink:href="#radial-gradient-2"/>
    <radialGradient id="radial-gradient-7" cx="245.65" cy="415.64" fx="245.65" fy="415.64" r="58.06" xlink:href="#radial-gradient-3"/>
    <radialGradient id="radial-gradient-8" cx="292.16" cy="401.42" fx="292.16" fy="401.42" r="93.54" xlink:href="#radial-gradient-4"/>
  </defs>
  <g>
    <path class="cls-8" d="M43.83,168.94c13.75-1.1,11.16-13.97,13.56-24.02,1.48-6.19,5.03-11.24,10.78-14.12,2.75-1.38,6.57-2.54,9.58-2-.11,2.91.15,5.87.03,8.8-.85,19.75-6.51,42.5-29.73,44.97H.02c.05-2.7-.06-5.41,0-8.11.74-40.06-.44-80.21.25-120.25.15-8.42-.43-15.02,2.12-23.25C6.29,18.31,17.45,6.41,30.09,2.27c7.61-2.5,15.48-1.64,23.38-1.75C86.4.03,119.39-.05,152.37.02l.81.36c-1.83,3.16-4.69,5.76-7.67,7.83-5.78,4.01-11.96,5.92-18.97,6.4H40.55c-14.78,1.69-24.93,13.87-26.43,28.3l-.24,126.03h29.95Z"/>
    <path class="cls-12" d="M127.67,62.15c-17.97,11.51-37.97,8.75-58.23,10.94-16.95,1.83-29.08,6.84-38.84,21.3-.27.39-2.1,4.37-2.86,3.6-.28-1.58-.9-3.25-1.16-4.83-1.64-9.99-.96-21.99,4.44-30.76,12.39-20.12,42.34-19.97,63.11-22.17,18.22-1.92,39.25-4.59,53.89-16.59,1.13-.93,2.37-2.44,3.51-3.3.26-.2.42-.43.83-.34.41.26.27.37.26.7-.54,16.56-11.27,32.69-24.94,41.45Z"/>
    <path class="cls-9" d="M55.56,124.87c-6.43,5.33-9.85,12.23-11.61,20.34-.92.64-4.17-3.96-4.61-4.66-6.2-9.83-7.59-24.57-2.7-35.19,6.34-13.77,22.2-18.58,36.12-20.26,17.85-2.16,36.22-1.86,52.86-9.62,1.31-.61,5.25-3.1,6.13-3.28,1.5-.3.25,2.8.12,3.41-2.83,12.79-11.98,25.93-23.39,32.52-16.93,9.79-36.9,3.47-52.91,16.74Z"/>
    <path class="cls-13" d="M166.57,12.96c-.3,1.11.55,2.04.69,2.95,1.27,8.34.17,20.98.24,29.83.19,24.07.2,48.44.29,72.34.06,15.4,1.99,28.73-5.97,42.7-7.58,13.31-20.88,21.37-36.23,22.02-18.77.81-37.78-.35-56.63.21-.39.01-2.43.64-1.87-.46.24-.48,3.82-2.95,4.59-3.63,1.82-1.62,3.66-3.73,5.12-5.69.55-.74,1.93-3.36,2.56-3.55l38.02-.04c7.42-.41,14.23-.26,20.98-3.69,9.87-5.02,15.43-15.24,16.49-26.03V51.37c6.64-10.01,9.99-21.4,10.8-33.36.11-1.66-.08-3.38,0-5.05h.94Z"/>
    <text class="cls-4" transform="translate(182.65 122.8)"><tspan class="cls-19" x="0" y="0">F</tspan><tspan class="cls-10" x="45.76" y="0">O</tspan><tspan class="cls-16" x="118.54" y="0">R</tspan><tspan class="cls-14" x="172.62" y="0">O</tspan><tspan class="cls-1" x="241" y="0">Z.</tspan></text>
    <g>
      <text class="cls-3" transform="translate(131.87 579.07)"><tspan class="cls-2" x="0" y="0">F</tspan><tspan x="35.04" y="0">O</tspan><tspan class="cls-15" x="90.76" y="0">R</tspan><tspan class="cls-7" x="132.17" y="0">O</tspan><tspan class="cls-5" x="184.53" y="0">Z</tspan></text>
      <text class="cls-3" transform="translate(131.87 579.07)"><tspan class="cls-2" x="0" y="0">F</tspan><tspan x="35.04" y="0">O</tspan><tspan class="cls-15" x="90.76" y="0">R</tspan><tspan class="cls-7" x="132.17" y="0">O</tspan><tspan class="cls-5" x="184.53" y="0">Z</tspan></text>
    </g>
  </g>
  <path class="cls-6" d="M193.7,496.11c18.38-1.48,14.91-18.67,18.12-32.11,1.98-8.28,6.72-15.02,14.41-18.87,3.68-1.84,8.77-3.39,12.81-2.68-.14,3.89.21,7.85.04,11.75-1.14,26.39-8.7,56.8-39.73,60.1h-64.2c.07-3.6-.08-7.23-.01-10.84.99-53.54-.59-107.19.34-160.7.2-11.26-.57-20.07,2.83-31.07,5.22-16.88,20.13-32.78,37.02-38.32,10.17-3.34,20.69-2.19,31.25-2.34,44-.64,88.09-.76,132.16-.66l1.08.48c-2.45,4.22-6.27,7.7-10.25,10.46-7.72,5.36-15.99,7.91-25.36,8.55h-114.9c-19.75,2.26-33.31,18.53-35.32,37.82l-.32,168.42h40.02Z"/>
  <path class="cls-17" d="M305.74,353.41c-24.01,15.38-50.75,11.69-77.82,14.62-22.65,2.45-38.86,9.15-51.9,28.46-.36.53-2.8,5.84-3.82,4.81-.37-2.12-1.2-4.34-1.55-6.46-2.19-13.35-1.28-29.39,5.93-41.11,16.56-26.89,56.59-26.69,84.33-29.62,24.35-2.57,52.45-6.13,72.01-22.16,1.51-1.24,3.16-3.27,4.69-4.41.35-.27.57-.58,1.11-.46.54.35.36.49.34.94-.72,22.13-15.06,43.69-33.33,55.39Z"/>
  <path class="cls-18" d="M209.37,437.22c-8.6,7.12-13.16,16.35-15.52,27.18-1.23.85-5.57-5.3-6.16-6.23-8.29-13.13-10.14-32.83-3.61-47.02,8.47-18.4,29.66-24.83,48.27-27.08,23.86-2.88,48.41-2.49,70.64-12.86,1.75-.82,7.01-4.14,8.19-4.38,2.01-.41.33,3.75.15,4.56-3.78,17.09-16.01,34.65-31.25,43.46-22.62,13.08-49.31,4.64-70.71,22.37Z"/>
  <path class="cls-11" d="M357.72,287.66c-.4,1.49.74,2.73.92,3.95,1.7,11.14.23,28.04.32,39.86.25,32.16.26,64.73.39,96.67.08,20.58,2.65,38.39-7.98,57.07-10.13,17.79-27.9,28.55-48.42,29.43-25.08,1.08-50.48-.46-75.68.29-.52.02-3.25.86-2.51-.62.32-.64,5.1-3.94,6.13-4.86,2.43-2.17,4.9-4.99,6.84-7.6.74-.99,2.58-4.49,3.42-4.74l50.8-.05c9.92-.54,19.01-.34,28.04-4.93,13.19-6.71,20.61-20.37,22.03-34.79v-118.35c8.87-13.38,13.35-28.6,14.43-44.59.15-2.22-.1-4.52,0-6.75h1.25Z"/>
</svg>